<?xml version="1.0" encoding="utf-8"?>
<svg width="16.875" height="18" viewBox="0 0 16.875 18" fill="none" xmlns="http://www.w3.org/2000/svg">
  <path d="M3.375 0L3.375 2.25L0 2.25L0 3.375C0 4.26132 0.174683 5.13913 0.51416 5.95816C0.852539 6.77719 1.35022 7.52124 1.97754 8.14801C2.46313 8.63361 3.01904 9.04147 3.62549 9.35815C4.23853 11.1149 5.90955 12.375 7.875 12.375L7.875 14.6596C7.03894 14.7632 6.25781 15.0955 5.65356 15.6135C4.91528 16.2466 4.5 17.1049 4.5 18L12.375 18C12.375 17.8992 12.3695 17.799 12.3585 17.6992L12.3475 17.6042L12.3278 17.482L12.3047 17.3694C12.2607 17.1686 12.1948 16.972 12.1091 16.7822C11.9136 16.3482 11.6125 15.9491 11.2214 15.6135C10.6172 15.0955 9.83606 14.7632 9 14.6596L9 12.375C10.9655 12.375 12.6365 11.1149 13.2495 9.35815C13.6011 9.17441 13.9351 8.96017 14.2493 8.71793C14.4767 8.54242 14.6931 8.35208 14.8975 8.14801C15.5248 7.52124 16.0225 6.77719 16.3608 5.95816C16.7003 5.13913 16.875 4.26132 16.875 3.375L16.875 2.25L13.5 2.25L13.5 0L3.375 0Z" fill="#5E5D67" fill-rule="evenodd" />
</svg>